<?xml version="1.0" encoding="utf-8"?>
<svg id="master-artboard" viewBox="0 0 1266.567138671875 351.4969482421875" version="1.1" xmlns="http://www.w3.org/2000/svg" x="0px" y="0px" style="enable-background:new 0 0 1400 980;" width="1266.567138671875px" height="351.4969482421875px"><defs><style id="ee-google-fonts">@import url(https://fonts.googleapis.com/css?family=Montserrat:400,700);</style></defs><rect id="ee-background" x="0" y="0" width="1266.567138671875" height="351.4969482421875" style="fill: white; fill-opacity: 0; pointer-events: none;" transform="matrix(1, 0, 0, 1, 4, 0)"/>


<path d="M 368.62786865234375 368.2596435546875 C 371.33453369140625 368.2596435546875 373.66455078125 367.8029479980469 375.61785888671875 366.8896179199219 C 377.5645446777344 365.98297119140625 379.6011962890625 364.532958984375 381.7278747558594 362.5396423339844 L 386.7778625488281 367.7196350097656 C 381.8578796386719 373.1729736328125 375.88787841796875 375.8996276855469 368.86785888671875 375.8996276855469 C 361.8412170410156 375.8996276855469 356.0111999511719 373.6396179199219 351.37786865234375 369.11962890625 C 346.751220703125 364.5996398925781 344.4378662109375 358.8829650878906 344.4378662109375 351.9696350097656 C 344.4378662109375 345.0563049316406 346.7978820800781 339.2962951660156 351.51788330078125 334.68963623046875 C 356.2378845214844 330.0762939453125 362.1978759765625 327.7696228027344 369.39788818359375 327.7696228027344 C 376.5978698730469 327.7696228027344 382.6145324707031 330.42962646484375 387.4478759765625 335.7496337890625 L 382.4578857421875 341.19964599609375 C 380.2445373535156 339.0729675292969 378.1512145996094 337.5896301269531 376.1778869628906 336.7496337890625 C 374.20452880859375 335.9029541015625 371.88787841796875 335.4796142578125 369.2278747558594 335.4796142578125 C 364.5345458984375 335.4796142578125 360.5912170410156 336.9996337890625 357.39788818359375 340.03961181640625 C 354.20452880859375 343.0729675292969 352.6078796386719 346.9496154785156 352.6078796386719 351.66961669921875 C 352.6078796386719 356.3896179199219 354.1945495605469 360.33294677734375 357.36785888671875 363.4996337890625 C 360.5345458984375 366.6729736328125 364.2878723144531 368.2596435546875 368.62786865234375 368.2596435546875 ZM 412.3054504394531 328.8996276855469 C 419.35211181640625 328.8996276855469 424.4954528808594 330.2529602050781 427.7354736328125 332.9596252441406 C 430.9687805175781 335.6596374511719 432.58544921875 339.8229675292969 432.58544921875 345.4496154785156 C 432.58544921875 351.08294677734375 430.9354553222656 355.206298828125 427.6354675292969 357.81964111328125 C 424.32879638671875 360.4329528808594 419.26544189453125 361.7396240234375 412.4454650878906 361.7396240234375 L 404.1954650878906 361.7396240234375 L 404.1954650878906 375.36962890625 L 396.35546875 375.36962890625 L 396.35546875 328.8996276855469 L 412.3054504394531 328.8996276855469 M 413.3054504394531 354.629638671875 C 417.6521301269531 354.629638671875 420.61212158203125 353.79962158203125 422.1854553222656 352.1396179199219 C 423.7587890625 350.47296142578125 424.54547119140625 348.032958984375 424.54547119140625 344.81964111328125 C 424.54547119140625 341.6062927246094 423.54547119140625 339.3363037109375 421.54547119140625 338.0096435546875 C 419.5521240234375 336.6763000488281 416.4288024902344 336.0096435546875 412.1754455566406 336.0096435546875 L 404.1954650878906 336.0096435546875 L 404.1954650878906 354.629638671875 L 413.3054504394531 354.629638671875 ZM 463.0261535644531 368.2596435546875 C 465.7328186035156 368.2596435546875 468.0628356933594 367.8029479980469 470.01617431640625 366.8896179199219 C 471.96282958984375 365.98297119140625 473.9994812011719 364.532958984375 476.12615966796875 362.5396423339844 L 481.1761474609375 367.7196350097656 C 476.25616455078125 373.1729736328125 470.2861633300781 375.8996276855469 463.26617431640625 375.8996276855469 C 456.239501953125 375.8996276855469 450.40948486328125 373.6396179199219 445.7761535644531 369.11962890625 C 441.1495056152344 364.5996398925781 438.8361511230469 358.8829650878906 438.8361511230469 351.9696350097656 C 438.8361511230469 345.0563049316406 441.1961669921875 339.2962951660156 445.9161682128906 334.68963623046875 C 450.63616943359375 330.0762939453125 456.5961608886719 327.7696228027344 463.7961730957031 327.7696228027344 C 470.99615478515625 327.7696228027344 477.0128173828125 330.42962646484375 481.8461608886719 335.7496337890625 L 476.8561706542969 341.19964599609375 C 474.642822265625 339.0729675292969 472.54949951171875 337.5896301269531 470.576171875 336.7496337890625 C 468.6028137207031 335.9029541015625 466.2861633300781 335.4796142578125 463.62615966796875 335.4796142578125 C 458.9328308105469 335.4796142578125 454.989501953125 336.9996337890625 451.7961730957031 340.03961181640625 C 448.6028137207031 343.0729675292969 447.00616455078125 346.9496154785156 447.00616455078125 351.66961669921875 C 447.00616455078125 356.3896179199219 448.59283447265625 360.33294677734375 451.76617431640625 363.4996337890625 C 454.9328308105469 366.6729736328125 458.6861572265625 368.2596435546875 463.0261535644531 368.2596435546875 Z" transform="matrix(6.699235439300537, 0, 0, 6.699235439300537, -1963.8978271484375, -2183.544677734375)" style="fill: rgb(35, 35, 35); white-space: pre; color: rgb(51, 48, 50);"/><g transform="matrix(3.3132028579711914, 0, 0, 3.3132028579711914, -186.2986602783203, -151.52440690994263)"><g id="g-1" transform="matrix(1, 0, 0, 1, 0, 0)">
	<g id="g-2">
		<path class="st0" d="M58,49h100v100H58V49z" style="fill: rgb(65, 90, 119);"/>
	</g>
</g></g><path d="M 243.7139892578125 528.2181396484375 L 242.82398986816406 530.2281494140625 L 241.23399353027344 530.2281494140625 L 245.12399291992188 521.3981323242188 L 246.7139892578125 521.3981323242188 L 250.60398864746094 530.2281494140625 L 249.0139923095703 530.2281494140625 L 248.1339874267578 528.2181396484375 L 243.7139892578125 528.2181396484375 M 247.52398681640625 526.84814453125 L 245.9239959716797 523.2081298828125 L 244.31399536132812 526.84814453125 L 247.52398681640625 526.84814453125 Z" transform="matrix(35.265045166015625, 0, 0, 35.265045166015625, -8502.400390625, -18366.560546875)" style="fill: rgb(255, 255, 255); white-space: pre; color: rgb(0, 0, 0); fill-opacity: 1;"/></svg>